PathFileType	4	(X/Y/Z)	Patient4_TMGait_0pt3_03_right_18.trc.trc
DataRate	CameraRate	NumFrames	NumMarkers	Units	OrigDataRate	OrigDataStartFrame	OrigNumFrames
56.910569105691	56.910569105691	5	33	mm	56.910569105691	36	       141
Frame#	Time	Sacral			L.Shoulder			Chest			R.Shoulder			Neck			R.ASIS			L.ASIS			R.Thigh.Superior			R.Thigh.Lateral			R.Thigh.Inferior			R.Patella			L.Thigh.Superior			L.Thigh.Lateral			L.Thigh.Inferior			L.Patella			L.Shank.Superior			L.Shank.Lateral			L.Shank.Inferior			R.Shank.Superior			R.Shank.Lateral			R.Shank.Inferior			R.Heel			R.Midfoot.Superior			R.Midfoot.Lateral			R.Toe			L.Heel			L.Midfoot.Lateral			L.Midfoot.Superior			L.Toe			L.Elbow			L.Wrist			R.Elbow			R.Wrist			
		X1	Y1	Z1	X2	Y2	Z2	X3	Y3	Z3	X4	Y4	Z4	X5	Y5	Z5	X6	Y6	Z6	X7	Y7	Z7	X8	Y8	Z8	X9	Y9	Z9	X10	Y10	Z10	X11	Y11	Z11	X12	Y12	Z12	X13	Y13	Z13	X14	Y14	Z14	X15	Y15	Z15	X16	Y16	Z16	X17	Y17	Z17	X18	Y18	Z18	X19	Y19	Z19	X20	Y20	Z20	X21	Y21	Z21	X22	Y22	Z22	X23	Y23	Z23	X24	Y24	Z24	X25	Y25	Z25	X26	Y26	Z26	X27	Y27	Z27	X28	Y28	Z28	X29	Y29	Z29	X30	Y30	Z30	X31	Y31	Z31	X32	Y32	Z32	X33	Y33	Z33	

36	34.585000000000	675.471243236880	1010.912543007405	461.747362493284	924.848978918488	1430.669253061964	331.193833755848	985.785796802327	1349.372281398439	506.066722588290	876.625639203604	1429.494083156801	661.908495586298	888.579623949516	1488.362895060285	485.165524925206	883.399494102684	931.586052740606	611.327856539198	908.606276398421	956.701066272519	339.014530821507	944.080958391954	745.980795131762	580.120206439195	870.181107363306	631.274799007695	635.143295420780	958.007738672092	586.099124383319	560.098617989450	968.909228457721	498.030589792226	568.629211680727	922.780329140775	729.502845916782	362.180388902821	827.987382877464	625.695384706686	284.196327432663	892.633679291073	534.167976711501	352.617806959056	880.679833901434	456.761871262118	352.699997333226	824.469468683426	398.973022348941	337.213001250251	703.355193706584	331.504879678229	268.064352846675	702.704434391217	203.756938861921	328.613812571379	941.592320588352	407.778474560820	575.889208745137	871.967716874360	303.598649418712	639.299544325317	918.154812718864	208.508678207966	578.596305744718	786.486085132089	43.046978179238	552.817831197980	958.252910025452	96.800285888837	587.535224781823	870.439196768780	36.998522668331	626.421187658996	1078.410925472289	44.892686377405	613.814319319955	524.477366385965	93.318486737932	342.660061133159	602.038629398260	69.754562564638	270.557285970483	696.067439420932	108.744973322589	305.342275548570	806.796427008253	34.498105568859	286.336216236479	948.343216699911	1082.867726052277	206.109432556716	1175.820891944122	994.429983621625	286.833064397768	732.460938726075	1105.301834338627	749.818345508646	787.125291520898	852.935280059086	786.162099173043	
37	34.602571428571	675.965372758015	1012.361180825082	466.931970973497	924.252721457635	1432.505365783699	335.476390656798	986.322462745971	1350.859705906180	509.812445737800	878.147081805675	1430.695922472322	666.407158111324	888.755031754839	1489.836629157883	489.726338469991	884.561923678705	932.760827642197	615.282402755782	908.291125328842	958.170402407939	342.820759209533	942.720699385017	745.262954243069	584.409798920748	866.979854548011	631.513992319808	638.547699444796	954.155100975913	585.538025902402	563.261195485370	963.886821335503	497.784126838889	571.129832359903	925.761710771258	731.962368122481	366.119147615951	833.045219604639	626.751676970246	288.020478428092	899.686524821359	535.862815369781	356.127529334589	888.318890668484	457.377262555139	355.401172605682	830.393053424082	400.141167510403	339.916072044206	707.607409304016	336.324555483171	270.386556525142	704.136227495046	208.100799757848	329.571705202390	936.558458725059	407.801975254443	578.028968239567	866.806280953247	303.391401783927	640.801890607100	913.091450792177	208.601951225745	579.626771637136	781.404969135929	42.917634449965	553.065046963148	953.152590171188	96.984194165407	587.918040270131	865.437094633946	36.948789774405	626.594054762876	1073.336568474078	45.136441223518	613.949055925975	522.970090780147	103.825298613237	342.639560223847	599.620844860147	77.338104751936	270.613694421709	695.106633689269	112.054068311415	305.669660833711	802.122210514234	33.689779512908	286.736804318768	945.528788420349	1084.772990590706	209.610638401421	1171.037385273517	991.669532860767	291.262351884554	738.162962177083	1105.301112150576	757.316486756287	804.393607136141	856.257254573124	796.719422380726	
38	34.620142857143	676.169848465114	1013.597151741495	472.005917780381	923.246330009431	1434.079432549214	339.292554412428	986.617016436518	1352.155432047552	513.063359837656	879.558173196824	1431.722590206661	670.500010183218	888.768509596572	1491.116948304285	493.836755981527	885.539170376509	933.827620383069	619.047801962825	907.626230349951	959.414431298297	346.353383678328	941.224139768392	744.481546985154	588.403703110196	863.767767258167	631.660442016971	641.760012758544	950.230037547063	584.931702283405	566.165943564552	958.818892175906	497.501097569466	573.374500011823	928.889749677759	734.534245972258	370.196479208436	838.687572766822	627.724939027481	291.965691520858	907.355840174925	537.697512377944	359.993607704249	896.633691949657	458.086757012436	358.467561517090	837.009544953980	401.328084269384	342.843418065700	712.625230588635	341.350066887804	272.880712867565	706.067010957548	212.743337261364	330.654952333229	931.488727457040	407.782943862477	579.982168040160	861.645667787305	303.168134319656	642.171596442708	907.986643266012	208.662997848686	580.566848348651	776.268283021883	42.802313335611	553.283123222441	948.002321699327	97.139596871256	588.284240887864	860.369012028144	36.900096875564	626.766072033863	1068.194478396463	45.370063090083	614.101524727970	522.054906137196	115.105608310079	342.701624494450	597.654273324524	85.661756926881	270.731219662258	694.472428346384	115.778698863651	306.117341385815	797.455763506377	32.891443081004	287.161131456370	942.128579432064	1086.398998674636	212.617644588481	1165.304560021248	987.579920028975	294.997469778999	744.123521134753	1105.189187098584	764.755902575383	821.532320872245	859.874747505316	806.681157298449	
39	34.637714285714	676.099253926863	1014.594076523850	476.979590545158	921.843238321650	1435.353644210028	342.643288028673	986.671482529613	1353.235068772640	515.826630993251	880.851592562088	1432.549804162812	674.183818226933	888.626564876032	1492.176395458943	497.493085509021	886.374206237698	934.759986308148	622.606809970808	906.614368846808	960.425641682796	349.618957088548	939.726896265921	743.688001235594	591.988844287917	860.782593425383	631.715811515856	644.732830131125	946.442144862977	584.299514933903	568.723410596041	953.960612622681	497.156608773564	575.302106914236	932.086398892942	737.208168018074	374.411609366070	844.829684313641	628.648648290330	296.023993471740	915.492147697547	539.702920610536	364.240942891711	905.486814831062	458.929999692323	361.922595698834	844.208017432540	402.564555801629	346.003573556280	718.304435674748	346.561015423319	275.582546347750	708.482660860621	217.652537778363	331.906183684094	926.578460776202	407.692299593834	581.690322898524	856.651249217575	302.932264710606	643.384456564960	902.908629715678	208.663279900946	581.371689071427	771.056962415163	42.708159825231	553.462606916334	942.790966347683	97.246577872603	588.597896610401	855.215349588382	36.857296248080	626.927144997783	1062.978934878941	45.555838058588	614.253119080463	521.789320177684	126.966311360279	342.935667496688	596.208737282214	94.597751978621	270.977151412615	694.208464620879	119.899432117700	306.711717943638	792.910124487927	32.188914420681	287.602645824787	938.129074302783	1087.659195537021	215.258972464661	1158.582241216802	982.091665885512	297.956400143015	750.398942436154	1104.924805212437	772.126245630986	838.503817106356	863.654056174936	815.921357386018	
40	34.655285714286	675.773852631217	1015.342268519758	481.866020137975	920.073160049863	1436.304059957081	345.545105355748	986.500536947208	1354.080894632579	518.122512168487	882.038390890763	1433.164297254018	677.466841284496	888.341188236361	1492.998088171024	500.706142956773	887.107071480015	935.533756378434	625.942044961827	905.266214816891	961.209999745154	352.637080141082	938.353954306223	742.924403118240	595.093887084966	858.222143066842	631.673078598821	647.427954768078	942.984899497467	583.655995215992	570.872312500514	949.548853623102	496.723773104674	576.872649016539	935.270199427725	739.979209114198	378.743872294177	851.363548301419	629.565046536037	300.178556046331	923.935833812571	541.912396090386	368.865597276244	914.737844342025	459.952440918421	365.765520740340	851.876003521206	403.884523159351	349.397111144268	724.536787625056	351.914404213693	278.529157106932	711.390627767275	222.768360979368	333.377346418845	922.007026397136	407.501865991832	583.111303125396	851.968100676377	302.684942220828	644.423221870434	897.924077725926	208.579805525342	582.009552482104	765.770517239145	42.637573529824	553.599809607954	937.518627226739	97.298856347621	588.835926623372	849.975824408551	36.823283001188	627.070816295491	1057.697136202291	45.677568223886	614.388058618688	522.242259654402	139.123654708467	343.449831871980	595.381369728154	103.950866923665	271.433007345468	694.398914217274	124.366427897809	307.489784518186	788.684574782090	31.688855809934	288.062011830637	933.542613027145	1088.488118697840	217.670977072150	1150.816620607944	975.151457245276	300.073937333002	757.014486780586	1104.493677063710	779.397902184994	855.283819229555	867.491329445644	824.326102477625	
